<?xml version="1.0" encoding="UTF-8"?>
<!-- Generator: Adobe Illustrator 18.0.0, SVG Export Plug-In . SVG Version: 6.00 Build 0)  -->
<!DOCTYPE svg PUBLIC "-//W3C//DTD SVG 1.1//EN" "http://www.w3.org/Graphics/SVG/1.1/DTD/svg11.dtd">
<svg version="1.1" id="Слой_1" xmlns="http://www.w3.org/2000/svg" xmlns:xlink="http://www.w3.org/1999/xlink" x="0px" y="0px" viewBox="0 105 768 746.2" enable-background="new 0 105 768 746.2" xml:space="preserve">
<path fill="#cccccc" stroke="#000000" stroke-width="12" stroke-linecap="round" stroke-linejoin="round" stroke-miterlimit="10" d="  M560,190.3l4.9-0.6l0.5-10.8v-9.9l-0.7-6.9l0.9-7.5l1.8-11.5l8.1-4l10.4,1.1l15.5,6.3l8.6,3.4l6.9,4.6l2.3,2.9l4-6.9l2.6,1.1  l-1.4,9.6v7l2.2,8.6l1,5.7l-2.8,2.3l-12-1.7l-6.3,1.7l-5.2,4.6l-1.7,8.6l2.9,8l-1.7,7.5l-2.3,9.8l1.1,8.6l5.2,5.7l1.4,10.3l2.9,7.2  v7.2l-6.2,4l5.7,10l-1.8-8.1h3l3.4-4.7l0.6-8l-2-3.2l-2.9-4.8v-6.4l1-5.7l-4.3-5.7l-1.7-6.3l0.6-9.2l2.3-6.9l-1.7-4.6l1.7-10.9  l8-2.6l9.3-0.6h5.1l1.7,14l5.2,18.7l4,21.2l2.9,4l1.1,13.8l4.6,13.8l11.5,27l12.1,26.4l1.7,6.9l5.7,6.9l19.5,35l9.8,14.4l5.7,8  l1.1,10.3l-1.7,5.2l-1.7-4l1.1-6.3l-4.6-4l-2.9,5.2l0.6,6.9l1.1,5.2l2.3,6.9l-1.7,11.2l-2.3-8.1h-2.3l-2.3-6.1l-3.4-7.7l-3.4-10.4  l1.1-7.5l-4-4.6l1.7-4l-0.6-8.6l-6.9-4l-0.8,5.7l2.3,8v9.3l4.1,10.3l4,10.3l4.7,8.6l9.8,18.9l3.5,12.6l7.5,13.8l6.3,16.7l6.9,13.8  l2.3,12.5l5.7,16.8l6.9,14.9l5.2,10.9l8,14.4l0.9,20.1l3,9.3v12v16.6l-4.4,16.2v14.8l-2.9,14.4l-2.6,20V708v11.1l-3.3,3.1V718  l-4-2.3l-2.7,5.2l-5.4,4.7v4.4v7l-5.4,2.3l2.4,19.5l-5.7,5.2l-3.4,6l-1.1,5.9h3.4l2.3-6.5l4.3-4.1l3.1-1.4v3.6l-4,5.2l-3.5,6.9  l-2.8,6.3l-4.6,5.2l-5.7,6.9l-10.9,10.3l-4.6,3.4l-1.7-2.9l8.6-7.5l5.5-7.5l5.2-7v-10.2l-7.7,2.5h-6.4l-3.4,5.3l-7.2,2.5l-4.8-7.8  v4.9l-3.3-2.9l-10.9-1v3.8c0,0-6.4,1.7-8.1,2.3c-1.7,0.6-7.1,0-7.1,0s-7.4-4.6-8.3-5.2c-0.9-0.6-6-5.2-6-5.2l2.6-12.6l2.9-2.8V757  l-3-5.2l-4.3-10.9l4.7-4l-6.6-2.3l-0.6-4.7v-4.5l-4.7-4.6l5.5-4l-4.5-1.7l-4,5.7l-2.3-8.3l-3.1-3.4h-4.9l-6.1-4.4h-4.4v-3.4  l-4.8-3.1l-4.4-2l-5.6,2l-2.9-0.3l-4.6-8l-4-10.9l-2.9-21.2l-5.2-17.8l-3.4-0.6l-5.7-4l-9.5-10.9l2.7,9.3v5.6l-6.7,3.4l-9.7-5.2  l-1.7-9.1l3.5,4.9l3.6,4.8h4.5l0.6-6.8c0,0-2.3-5.6-5.2-6.7c-2.9-1.1-0.6-6.4-0.6-6.4l-1.7-5.2l-3.4-1.2l-3.4,6.3c0,0-2.3-6.9-4.6-8  s1.1-6.9,1.1-6.9l4,0.8l5.5,3.5h3.3h4.5l2.9-12.1l-2.9-5.8l6.9-10.4l-6.3,4l-6.1-2.9l-3.6,0.6l-0.6,7.2l4.2,7.5h-6.6h-8l-5.7-9.9  L529,578l-4.6-11.6l-3.4-4.1l-1.1-10.4l-6.3-5.8l-1.1-10.3l-2.9-6.9l-4.6-2.3l2.9,9.2l-5.7-5.2l-1.1-6.9l-6.3-9.1l5.2,0.8h5.5h3.6  l2.3-9l4.6-5.6l6.6-11l4.7-5.1V477v-5h-5l-0.6,5.2l0.6,5.6l-5.2-1.2l-4.6-0.6l2.3-6.9l-2.3-5.2l-5.2-5.7l-4.6-2.3l-2.9,4.6l-4.6,4  l4.6,2.3l5.2,2.3l3.4,3l-2.3,8.5l-1.1,4.9l-1.8,5.7h-5.5h-3.1l-4-8.7l-4.6-4l-2.3-6.2l-1.1-9.9l3.4-8.1l3.4-7.5l-0.6-8l5.2-9.2  l1.1-8l2.3-10.3l4-6.9l-0.6-10.3l-0.6-5.2l2.3-4.6l2.9-5.5l-1.3-8.9h-1.6l-2.3-3.5l-3.4-3.6l1.9-2.8h5l-2.3-3.7l-2.7-5H494l-2.3-3.3  l1.1-4.4l2.3-4.7l-4.6-5.5l-1.7-6.2H483l-7.3-3.3h-7.7h-4.9l-1.5-10.1l-3.4-3h-5.6l-3.4-6.1l-1.7-8.6l-4.5-3.9h-4.7l-7.2-5.7l-4.6-3  v-15.9l-2.2-2.7h-4.5l-0.6-4.7l-4-1.1l-3.7-0.6l-3.6-3.4V250l-8.3-6.9l-6.9-6.9l-8.9-3.4l-7.1-3.4l-6.3-4.6l-2.9-2.6l-4.5,0.5h-5.3  L355,220l-2.9,3.8l-4.6-0.6l-4-2.3l-2.3,3.4l-5.7,1.7l-3.4,2l0.5,5.7H328l-2.9,2.7l4.9,0.6l3.6,1v4.6l-5.1,1.1l-11-1.7l-12,6.9  l-12,5.7l-6.3,5.7l-6.9,0.6l1.2-5.7l-3.9,1.1l-4.1,4l-5.2,0.6l-0.6,6.6l-6.2,1.1h-7l2.3,3.1l2.9,3.8l8-1.2l28.1-11.5l-4,3.4l-5.2,4  l-4.6,2.6l-16.2,6.8h-7.3l-6.9-5.6l-4-4.8l-9.8-0.4l-1.5,5.3h-5.9l0.5-5.7l5.3-4.6l0.6-6.8l-3.4-7.5l-5.2-8.4l-6-4.2h-5.5l-2.2-4.9  l-13.3-7.7l5.7-1.2l5.2,2.5l6.8,6.9h5.2l0.2-4.4h-5.4l-2.3-4.6l-4.3-3.1H209h-6.6h-2.2h-4.9l-2.9-4.5l1.1-2.6l2.9-3.5l2.9-2.9  l3.4-2.9l5.2,0.6l1.7-6l1.5-4.4h-3.8l-0.6,5.8l-4.6,1.3l-4,1.1l-3.4-0.6l-3.4-2.3l-6.3-1.2l-2.9,1.7l3.4,5.7l4.6,0.6l1.7,4l-3.4,2.9  l-5.2-3.4l-5.7-2.3l-6.3-4l-29.9-10.3l-17.8-3.4l-12.6-1.1l5.7-2.3l5.7-1.1l8.6,2.3l5.2-1.7l5.2-1.7l6.3,1.7l5.2,3.4l3.4-1.7  l-4.6-5.2l-5.7-3.4l-5.7-1.7l-6.3,1.1l-4.6,2.9l-5.7-0.6l0.6-2.9l-2.9-1.7l-4.6-0.6l-1.7,4l-5.7,2.3l-4-0.6l0.6,6.3l-5.7-0.6l-8,0.6  l-8,1.1l-8.6,2.3l-9.8,0.6l-9.2,2.9l-4.6-2.3l2.9-4l4-2.3l5.7-0.6l5.7-2.3l5.2-2.9l-3.4-1.7l-5.7-2.9l-0.6-3.4l1.7-4.6l-2.9-2.3  l-1.7,5.7l-2.3,5.7l-2.6,3.4l-3-1v-6.5l-4.1-5.2l-2.5-1.1l0.6,5.7l1.8,2.9l-1.1,6.3l-1.1,6.9l-0.6,5.2l-3.4,2.3l-4.6-0.9l-0.2-3.6  h-3.8l-2.3,2.5l-1.5,4h-4.8l-8.6,2.4l0.6-4.3l4-4.4l2.2-4.6H30l2.3-4.2l-2.9-1.2l-4.6-0.6l-2.9-5.8l0.3-5.8l3.1-4.3v-6l-0.8-5.9  l-6.1-3.3l-3.4-4l-4.3-4.6l-7.3-3.5v-4.4v-6.5c3.3-3.4,1.1-8.8,1.1-8.8H267l4.3,6.6v4.4v7.7v8.6l6.6,4.5h16.3l244.7,15.7l4.1,5.4  l3.9,6.2v5.9l3.7,7L560,190.3z M751.2,744.4l-2.7,4l-2.7,6.3v4.7l2.7-4.1l2.7-5.7V744.4z M691.4,811.7l-4.5,6.7l-3.4,3.3h4.4  l3.3-2.7v-2.8L691.4,811.7z M674.7,826.1h-6.6l-2.5,3.3h4.7L674.7,826.1z M640.8,835.9v3.3l3.6-1.6L640.8,835.9z M553.3,844.7v5.5  h6.6v-5.5l-3.3-0.3L553.3,844.7z M586.1,844.7v6.6h8.7l6.4-1.4l5.2-2.7l8.6-2.7l4-5.2l6.3-3.3l6.1,3.3l4.9-1.6v-4.9H632l-2-4.4h-4.5  l-2.9,3.7l-3.4,0.4l-7.4,3.6l-3.7,1.6v1.6l-5.5,5.5H596h-4.4l-2-5.3L586.1,844.7z M602.2,836.4l3.6,1.2v-2.7h-3.3L602.2,836.4z   M596,703.7v3.3h6.6l-0.1-3.3H596z M495.1,501.7l-3.5,5.2h8.1L495.1,501.7z M301.9,261h7.7l2.4-6.6h-4.6L301.9,261z M226.1,249.1  l-3.6,5.3l3.3,10.9h4l-3.6-8.1l3.6-5.9L226.1,249.1z"/>
</svg>